# xmcd CD database file
# Generated: Sun Oct 19 18:38:01 2003 by KSCD
# 
# Track frame offsets:
#       150
#       16238
#       29963
#       44663
#       56963
#       73763
#       85876
#       102864
#       120714
#       136464
#
# Disc length: 1983 seconds
#
# Revision: 6
# Processed by: cddbd v1.4PL0 Copyright (c) Steve Scherf et al.
# Submitted via: Kscd 1.3.3
#
DISCID=9607bd0a
DTITLE=Tex Morton - The Good Old Days
DYEAR=1900
DGENRE=
TTITLE0=Good Old Days
TTITLE1=Tex Morton's Protest Song
TTITLE2=Campfire Medley
TTITLE3=Chinee Luck
TTITLE4=The Eyes Of Temptation
TTITLE5=Hallelujah I'm a Bum
TTITLE6=Beautiful Queensland
TTITLE7=Rodeo-Round-Up - Rocky Ned
TTITLE8=Rocking Alone
TTITLE9=Australia (So Wide And Grand)
EXTD=
EXTT0=
EXTT1=
EXTT2=
EXTT3=
EXTT4=
EXTT5=
EXTT6=
EXTT7=
EXTT8=
EXTT9=
PLAYORDER=
